<?xml version="1.0" standalone="no"?>
<!DOCTYPE svg PUBLIC "-//W3C//DTD SVG 1.0//EN" "http://www.w3.org/TR/2001/REC-SVG-20010904/DTD/svg10.dtd">
<svg xmlns="http://www.w3.org/2000/svg" xmlns:xlink="http://www.w3.org/1999/xlink" id="body_1" width="800" height="800">

<g transform="matrix(1.5625 0 0 1.5625 0 0)">
    <path d="M258.391 17.884C 251.456 12.884001 242.64099 11.1 234.23499 12.988001C 225.61299 14.928001 218.22098 20.488 213.94998 28.243C 136.50299 168.898 251.81398 283.281 252.98598 284.418C 254.63698 286.017 256.84396 286.91 259.132 286.91C 259.248 286.91 259.365 286.906 259.481 286.901C 261.895 286.806 264.166 285.725 265.761 283.909L265.761 283.909L321.543 220.472C 321.923 220.045 322.258 219.575 322.543 219.084C 351.506 169.289 363.881 93.965 258.391 17.884z" stroke="none" fill="#F8EBC8" fill-rule="nonzero" />
    <path d="M258.893 197.9C 239.32901 197.9 221.38701 204.816 207.35501 216.323C 226.48901 258.127 252.432 283.88 252.98502 284.417C 254.63602 286.016 256.84302 286.909 259.131 286.909C 259.247 286.909 259.364 286.905 259.48 286.9C 261.894 286.805 264.165 285.724 265.76 283.908L265.76 283.908L318.457 223.97899C 303.604 207.976 282.452 197.9 258.893 197.9z" stroke="none" fill="#FFEB6E" fill-rule="nonzero" />
    <path d="M258.963 221.054C 243.16002 221.054 228.848 227.371 218.35501 237.59C 235.141 266.678 252.53401 283.97998 252.98601 284.418C 254.63701 286.017 256.844 286.91 259.13202 286.91C 259.24802 286.91 259.36502 286.906 259.48102 286.901C 261.89502 286.806 264.16602 285.725 265.76102 283.909L265.76102 283.909L303.13702 241.403C 292.457 228.963 276.646 221.054 258.963 221.054z" stroke="none" fill="#FFC32D" fill-rule="nonzero" />
    <path d="M267.699 278.533C 266.526 277.395 151.21701 163.013 228.66301 22.358002C 230.772 18.530003 233.65201 15.2490015 237.05402 12.662002C 236.11302 12.781002 235.16902 12.779001 234.23502 12.989001C 225.61302 14.929001 218.22101 20.489002 213.95001 28.244001C 136.50302 168.899 251.81401 283.28198 252.98601 284.41898C 254.63701 286.01797 256.844 286.91098 259.13202 286.91098C 259.24802 286.91098 259.36502 286.90698 259.48102 286.90198C 261.89502 286.80698 264.16602 285.72598 265.76102 283.90997L265.76102 283.90997L269.47302 279.68896C 268.862 279.332 268.216 279.033 267.699 278.533z" stroke="none" fill="#F5E1B9" fill-rule="nonzero" />
    <path d="M508.511 185.303C 504.395 177.484 497.097 171.799 488.50198 169.69899C 332.54898 131.59499 252.15099 272.719 251.35298 274.146C 250.16798 276.288 249.92198 278.823 250.67699 281.151C 251.43199 283.479 253.11699 285.388 255.333 286.427L255.333 286.427L339.387 325.756C 339.999 326.045 340.646 326.256 341.305 326.398L341.305 326.398L342.77 326.704C 352.197 328.644 362.241 329.859 372.65 329.859C 419.806 329.859 474.192 304.927 510.085 209.90302C 513.106 201.898 512.532 192.933 508.511 185.303z" stroke="none" fill="#FFF5DC" fill-rule="nonzero" />
    <path d="M251.352 274.147C 250.167 276.289 249.921 278.824 250.67601 281.152C 251.43102 283.48 253.11601 285.389 255.33202 286.428L255.33202 286.428L328.738 320.77402C 335.991 308.60602 340.233 294.43503 340.233 279.24002C 340.233 251.52103 326.342 227.07402 305.168 212.38803C 269.82 241.744 251.728 273.473 251.352 274.147z" stroke="none" fill="#FFF073" fill-rule="nonzero" />
    <path d="M251.352 274.147C 250.167 276.289 249.921 278.824 250.67601 281.152C 251.43102 283.48 253.11601 285.389 255.33202 286.428L255.33202 286.428L307.79602 310.976C 313.72702 301.85202 317.20502 290.989 317.20502 279.29602C 317.20502 257.50803 305.22003 238.54402 287.50302 228.55702C 263.819 252.323 251.659 273.597 251.352 274.147z" stroke="none" fill="#FFCD32" fill-rule="nonzero" />
	<g>
        <path d="M262.387 289.595C 263.185 288.168 343.583 147.043 499.536 185.14801C 503.566 186.132 507.269 187.966 510.534 190.37701C 509.991 188.64702 509.37 186.93301 508.51 185.30202C 504.394 177.48302 497.096 171.79802 488.501 169.69801C 332.548 131.59401 252.15001 272.71802 251.352 274.14502C 250.167 276.28702 249.921 278.82202 250.67601 281.15002C 251.43102 283.47803 253.11601 285.38702 255.33202 286.42603L255.33202 286.42603L262.35202 289.71103C 262.37 289.675 262.367 289.631 262.387 289.595z" stroke="none" fill="#F8EBC8" fill-rule="nonzero" />
        <path d="M261.309 269.448C 258.925 268.957 256.412 269.448 254.39499 270.849C 252.387 272.258 251.055 274.435 250.71799 276.866L250.71799 276.866L237.72198 370.30402C 237.62698 370.98 237.60898 371.661 237.67499 372.34302C 242.63199 425.29703 274.495 490.126 398.145 498.239C 398.792 498.278 399.443 498.30002 400.089 498.30002C 407.942 498.30002 415.555 495.17902 421.215 489.571C 427.495 483.351 430.814 474.717 430.319 465.876C 421.331 305.565 262.909 269.792 261.309 269.448z" stroke="none" fill="#F8EBC8" fill-rule="nonzero" />
	</g>
    <path d="M336.609 303.295C 298.022 277.756 262.06702 269.61102 261.30902 269.448C 258.92502 268.957 256.41202 269.448 254.39502 270.849C 252.38702 272.258 251.05502 274.435 250.71802 276.866L250.71802 276.866L239.41502 358.132C 245.66702 359.671 252.16702 360.578 258.894 360.578C 295.441 360.578 326.351 336.472 336.609 303.295z" stroke="none" fill="#FFEB6E" fill-rule="nonzero" />
    <path d="M316.019 291.042C 286.122 275.083 261.92902 269.581 261.308 269.448C 258.924 268.957 256.411 269.448 254.39401 270.849C 252.38602 272.258 251.05402 274.435 250.71701 276.866L250.71701 276.866L242.60802 335.166C 247.80101 336.68298 253.27802 337.53598 258.962 337.53598C 287.105 337.537 310.585 317.577 316.019 291.042z" stroke="none" fill="#FFC32D" fill-rule="nonzero" />
    <path d="M261.309 269.448C 258.925 268.957 256.412 269.448 254.39499 270.849C 252.387 272.258 251.055 274.435 250.71799 276.866L250.71799 276.866L249.29498 287.099C 249.86998 287.106 250.44199 286.985 251.00998 287.103C 252.60898 287.448 411.03296 323.22 420.01898 483.53198C 420.16098 486.068 419.90598 488.564 419.44098 491.01398C 420.024 490.51898 420.667 490.11398 421.214 489.57098C 427.494 483.35098 430.813 474.71698 430.318 465.87598C 421.331 305.565 262.909 269.792 261.309 269.448z" stroke="none" fill="#F5E1B9" fill-rule="nonzero" />
    <path d="M268.068 277.267C 267.826 274.771 266.533 272.491 264.516 271.004C 262.494 269.521 259.939 268.96 257.486 269.469L257.486 269.469L151.728 291.43C 150.887 291.602 150.077 291.9 149.32199 292.305C 107.673996 314.818 63.80699 365.109 91.32099 476.83698C 93.36499 485.14297 98.91599 492.20798 106.55499 496.21298C 111.024994 498.56198 115.95699 499.74698 120.909 499.74698C 124.619995 499.74698 128.344 499.07898 131.892 497.73398C 281.995 440.725 268.223 278.892 268.068 277.267z" stroke="none" fill="#F8EBC8" fill-rule="nonzero" />
    <path d="M257.486 269.469L177.896 285.997C 181.319 327.513 215.867 360.173 258.179 360.542C 271.28598 315.47598 268.142 278.044 268.068 277.267C 267.826 274.771 266.533 272.491 264.516 271.004C 262.495 269.521 259.938 268.96 257.486 269.469z" stroke="none" fill="#FFEB6E" fill-rule="nonzero" />
    <path d="M264.517 271.004C 262.495 269.521 259.94 268.96 257.487 269.469L257.487 269.469L200.82 281.237C 201.85301 312.496 227.45401 337.538 258.96402 337.538C 260.584 337.538 262.17603 337.425 263.76202 337.29498C 270.25003 303.292 268.13004 277.90598 268.06903 277.26797C 267.827 274.771 266.534 272.491 264.517 271.004z" stroke="none" fill="#FFC32D" fill-rule="nonzero" />
    <path d="M268.068 277.267C 267.826 274.771 266.533 272.491 264.516 271.004C 262.494 269.521 259.939 268.96 257.486 269.469L257.486 269.469L247.33699 271.577C 247.734 272.453 248.11198 273.347 248.20499 274.324C 248.361 275.949 262.132 437.78198 112.02899 494.792C 110.29099 495.451 108.509995 495.93698 106.70899 496.272C 111.13899 498.569 116.009995 499.74802 120.90899 499.74802C 124.61999 499.74802 128.344 499.08002 131.89198 497.73502C 281.995 440.725 268.223 278.892 268.068 277.267z" stroke="none" fill="#F5E1B9" fill-rule="nonzero" />
    <path d="M259.481 286.901C 259.365 286.905 259.248 286.91 259.132 286.91C 256.843 286.91 254.63599 286.017 252.986 284.418C 252.25499 283.708 207.224 239.022 192.108 171.41699C 153.791 146.03 96.116005 135.23499 13.154999 191.411C 6.072999 196.209 1.3699989 203.864 0.25899887 212.416C -0.8830011 221.179 1.7979989 230.033 7.612999 236.706C 56.8 293.16 115.004 308.286 163.29001 308.286C 218.55 308.286 260.815 288.453 261.599 288.075C 263.294 287.25803 264.507 285.83102 265.382 284.198C 263.812 285.797 261.734 286.812 259.481 286.901z" stroke="none" fill="#FFF5DC" fill-rule="nonzero" />
    <path d="M259.133 286.909C 256.844 286.909 254.637 286.016 252.987 284.417C 252.434 283.88098 226.51 258.11 207.379 216.30699C 189.178 231.224 177.556 253.87 177.556 279.23898C 177.556 289.18198 179.429 298.666 182.694 307.474C 228.148 303.764 260.909 288.407 261.598 288.073C 263.293 287.256 264.50598 285.829 265.38098 284.19598C 263.81198 285.796 261.73297 286.81097 259.482 286.9C 259.366 286.905 259.249 286.909 259.133 286.909z" stroke="none" fill="#FFF073" fill-rule="nonzero" />
    <path d="M265.381 284.197C 263.812 285.797 261.733 286.81198 259.48203 286.901C 259.36603 286.905 259.24902 286.91 259.13303 286.91C 256.84402 286.91 254.63702 286.017 252.98703 284.418C 252.53603 283.98 235.17003 266.715 218.39903 237.662C 207.52904 248.226 200.72203 262.934 200.72203 279.295C 200.72203 288.286 202.81903 296.768 206.45804 304.371C 234.92204 299.321 255.19403 290.914 260.31903 288.652C 260.38904 288.621 260.47205 288.58502 260.53503 288.557C 261.11703 288.298 261.53705 288.103 261.60004 288.074C 262.48904 287.646 263.20804 286.986 263.89404 286.306C 264.468 285.671 264.97 284.964 265.381 284.197z" stroke="none" fill="#FFCD32" fill-rule="nonzero" />
    <path d="M262.432 268.672C 262.133 268.86398 261.92102 269.159 261.598 269.314C 260.813 269.694 218.549 289.525 163.289 289.525C 115.003006 289.525 56.799004 274.4 7.6119995 217.94499C 4.8259993 214.747 2.8069997 211.03099 1.5349994 207.07999C 0.9779994 208.81198 0.49699938 210.57898 0.25799942 212.41399C -0.88400054 221.17699 1.7969995 230.03099 7.6119995 236.70398C 56.799 293.158 115.003 308.284 163.289 308.284C 218.549 308.284 260.814 288.451 261.598 288.073C 263.827 286.999 265.499 285.038 266.215 282.671C 266.927 280.304 266.616 277.744 265.353 275.619C 265.352 275.621 264.289 272.967 262.432 268.672z" stroke="none" fill="#F8EBC8" fill-rule="nonzero" />
    <path d="M278.828 279.236C 278.828 284.73923 276.88232 289.43652 272.9909 293.3279C 269.09955 297.2193 264.40222 299.16498 258.899 299.16498C 253.39575 299.16498 248.69844 297.2193 244.80705 293.3279C 240.91568 289.43652 238.96999 284.73923 238.96999 279.236C 238.96999 273.73276 240.91568 269.03546 244.80705 265.14407C 248.69844 261.2527 253.39575 259.307 258.899 259.307C 264.40222 259.307 269.09955 261.2527 272.9909 265.14407C 276.88232 269.03546 278.828 273.73276 278.828 279.236C 278.828 279.46793 278.82397 279.69977 278.81586 279.93152" stroke="none" fill="#FFAA28" fill-rule="nonzero" />
</g>
</svg>